<?xml version="1.0" standalone="no"?>
<svg viewBox="0 0 200 200" xmlns="http://www.w3.org/2000/svg">
  <path fill="#053742" d="M45.4,-69.1C55.8,-63.9,59.3,-46.3,67,-30.3C74.8,-14.4,86.9,-0.1,87.4,14.2C87.9,28.5,76.8,42.7,63.6,51.3C50.3,59.9,34.8,62.8,19.9,66.7C5,70.7,-9.3,75.6,-22.2,73C-35.1,70.4,-46.5,60.3,-52,48.2C-57.5,36.2,-57.1,22.2,-57.4,9.3C-57.7,-3.6,-58.6,-15.4,-56,-27.3C-53.3,-39.2,-47,-51.3,-37,-56.7C-27.1,-62.1,-13.6,-61,2,-64.1C17.5,-67.1,34.9,-74.3,45.4,-69.1Z" transform="translate(100 100)" />
</svg>
